<svg width="40" height="40" viewBox="0 0 40 40" fill="none" xmlns="http://www.w3.org/2000/svg">
<rect width="40" height="40" rx="20" fill="#FEF0F0"/>
<path d="M28.8145 15.7789C28.5352 15.1372 28.1325 14.5558 27.629 14.0671C27.125 13.5769 26.5308 13.1874 25.8788 12.9197C25.2026 12.641 24.4774 12.4983 23.7452 12.5C22.718 12.5 21.7158 12.7791 20.8448 13.3063C20.6365 13.4324 20.4386 13.5709 20.251 13.7218C20.0635 13.5709 19.8656 13.4324 19.6572 13.3063C18.7863 12.7791 17.7841 12.5 16.7569 12.5C16.0172 12.5 15.3005 12.6406 14.6233 12.9197C13.9691 13.1885 13.3794 13.5751 12.8731 14.0671C12.3689 14.5552 11.9661 15.1368 11.6876 15.7789C11.3979 16.4466 11.25 17.1558 11.25 17.8855C11.25 18.574 11.3917 19.2914 11.673 20.0211C11.9084 20.631 12.2459 21.2636 12.6772 21.9025C13.3607 22.9134 14.3003 23.9678 15.4671 25.0366C17.4007 26.8084 19.3155 28.0323 19.3968 28.0819L19.8906 28.3961C20.1093 28.5346 20.3906 28.5346 20.6094 28.3961L21.1032 28.0819C21.1845 28.0302 23.0972 26.8084 25.0328 25.0366C26.1996 23.9678 27.1393 22.9134 27.8227 21.9025C28.254 21.2636 28.5937 20.631 28.827 20.0211C29.1083 19.2914 29.25 18.574 29.25 17.8855C29.2521 17.1558 29.1041 16.4466 28.8145 15.7789V15.7789Z" fill="#FF8585"/>
</svg>
